<svg width="64" height="64" viewBox="0 0 64 64" fill="none" xmlns="http://www.w3.org/2000/svg">
<path d="M0 12C0 5.37258 5.37258 0 12 0H52C58.6274 0 64 5.37258 64 12V52C64 58.6274 58.6274 64 52 64H12C5.37258 64 0 58.6274 0 52V12Z" fill="#EAF2F3"/>
<path d="M28.9766 39.5234L41 27.5L38.8906 25.3906L28.9766 35.2344L25.1094 31.3672L23 33.4766L28.9766 39.5234ZM33.0547 18.9219C32.7734 18.6406 32.4219 18.5 32 18.5C31.5781 18.5 31.2266 18.6406 30.9453 18.9219C30.6641 19.2031 30.5234 19.5547 30.5234 19.9766C30.5234 20.3984 30.6641 20.7734 30.9453 21.1016C31.2266 21.3828 31.5781 21.5234 32 21.5234C32.4219 21.5234 32.7734 21.3828 33.0547 21.1016C33.3359 20.7734 33.4766 20.3984 33.4766 19.9766C33.4766 19.5547 33.3359 19.2031 33.0547 18.9219ZM42.4766 18.5C43.2734 18.5 43.9766 18.8047 44.5859 19.4141C45.1953 20.0234 45.5 20.7266 45.5 21.5234V42.4766C45.5 43.2734 45.1953 43.9766 44.5859 44.5859C43.9766 45.1953 43.2734 45.5 42.4766 45.5H21.5234C20.7266 45.5 20.0234 45.1953 19.4141 44.5859C18.8047 43.9766 18.5 43.2734 18.5 42.4766V21.5234C18.5 20.7266 18.8047 20.0234 19.4141 19.4141C20.0234 18.8047 20.7266 18.5 21.5234 18.5H27.7812C28.1094 17.6094 28.6484 16.8828 29.3984 16.3203C30.1484 15.7578 31.0156 15.4766 32 15.4766C32.9844 15.4766 33.8516 15.7578 34.6016 16.3203C35.3516 16.8828 35.8906 17.6094 36.2188 18.5H42.4766Z" fill="#2B7E83"/>
</svg>
