<svg width="21" height="25" viewBox="0 0 21 25" fill="none" xmlns="http://www.w3.org/2000/svg">
<path d="M10.0195 0C16.6992 5.66406 20.0391 10.5664 20.0391 14.707C20.0391 16.2695 19.7656 17.6953 19.2188 18.9844C18.6719 20.2344 17.9297 21.3086 16.9922 22.207C16.0547 23.1055 14.9805 23.7891 13.7695 24.2578C12.5977 24.7266 11.3477 24.9609 10.0195 24.9609C8.69141 24.9609 7.42188 24.7266 6.21094 24.2578C5.03906 23.7891 3.98438 23.1055 3.04688 22.207C2.10938 21.3086 1.36719 20.2344 0.820312 18.9844C0.273438 17.6953 0 16.2695 0 14.707C0 10.5664 3.33984 5.66406 10.0195 0ZM4.80469 15C4.53125 15 4.29688 15.1172 4.10156 15.3516C3.90625 15.5469 3.82812 15.7812 3.86719 16.0547C4.10156 17.3438 4.57031 18.3789 5.27344 19.1602C5.97656 19.9023 6.77734 20.4492 7.67578 20.8008C8.57422 21.1523 9.47266 21.2891 10.3711 21.2109C10.6055 21.2109 10.8008 21.1328 10.957 20.9766C11.1523 20.7812 11.25 20.5469 11.25 20.2734C11.25 20 11.1523 19.7852 10.957 19.6289C10.7617 19.4336 10.5273 19.3359 10.2539 19.3359C9.70703 19.375 9.10156 19.2969 8.4375 19.1016C7.8125 18.8672 7.24609 18.4961 6.73828 17.9883C6.23047 17.4414 5.89844 16.6992 5.74219 15.7617C5.70312 15.5273 5.58594 15.3516 5.39062 15.2344C5.23438 15.0781 5.03906 15 4.80469 15Z" fill="#2B7E83"/>
</svg>
